# xmcd CD database file
#
# Track frame offsets:
#	150
#	36470
#	74770
#	102748
#	122819
#
# Disc length: 1782 seconds
#
# Revision: 0
# Processed by: cddbd v1.5.2PL0 Copyright (c) Steve Scherf et al.
# Submitted via: CDex 1.70beta3
#
DISCID=5006f405
DTITLE=Ben Webstar - The Cool Jazz Collection 77
DYEAR=1900
DGENRE=Jazz
TTITLE0=Soulville
TTITLE1=Lover Come Back to Me
TTITLE2=My One And Only Love
TTITLE3=In a Mellow Tone
TTITLE4=Stardust
EXTD=
EXTT0=
EXTT1=
EXTT2=
EXTT3=
EXTT4=
PLAYORDER=
